<?xml version="1.0" encoding="UTF-8"?>
<svg xmlns="http://www.w3.org/2000/svg" version="1.1" viewBox="0 0 1218.02 625">
  <defs>
    <style>
      .st0 { fill: #fb7185; }
      .st1 { fill: #ffffff; }
      .st2 { fill: #22d3ee; }
    </style>
  </defs>
  <g>
    <path class="st1" d="M80.48,499.46c-4.8,2.09-9.94,3.14-15.45,3.14s-10.74-.92-15.38-2.75c-4.64-1.84-8.67-4.44-12.09-7.8-3.42-3.37-6.1-7.34-8.03-11.93-1.94-4.59-2.91-9.64-2.91-15.15s.97-10.56,2.91-15.15c1.94-4.59,4.61-8.57,8.03-11.93,3.42-3.37,7.44-5.97,12.09-7.8,4.64-1.84,9.77-2.75,15.38-2.75s10.66,1.05,15.45,3.14c4.79,2.09,9.18,5.23,13.16,9.41l12.85-12.09c-5-5.92-11.12-10.38-18.36-13.39-7.24-3.01-15.25-4.51-24.02-4.51-8.26,0-15.86,1.35-22.8,4.05-6.94,2.7-13,6.55-18.21,11.55-5.2,5-9.23,10.81-12.09,17.44-2.86,6.63-4.28,13.98-4.28,22.03s1.43,15.4,4.28,22.03c2.85,6.63,6.86,12.45,12.01,17.44,5.15,5,11.19,8.85,18.13,11.55,6.94,2.7,14.53,4.05,22.8,4.05,8.87,0,16.93-1.53,24.17-4.59,7.24-3.06,13.36-7.55,18.36-13.46l-12.85-12.09c-3.98,4.28-8.37,7.47-13.16,9.56Z"/>
    <path class="st1" d="M155.29,518.51v-107.1h19.89v90.27h56v16.83h-75.89Z"/>
    <polygon class="st1" points="297.89 501.68 297.89 472.3 349.6 472.3 349.6 455.93 297.89 455.93 297.89 428.24 356.18 428.24 356.18 411.41 278 411.41 278 518.51 358.32 518.51 358.32 501.68 297.89 501.68"/>
    <polygon class="st1" points="464.2 411.41 444.62 411.41 396.42 518.51 416.77 518.51 427.41 493.72 434.12 478.12 454.25 431.24 474.3 478.12 480.98 493.72 491.59 518.51 512.55 518.51 464.2 411.41"/>
    <path class="st1" d="M648.72,518.51l-24.63-35.14c.54-.22,1.08-.43,1.6-.66,6.78-3.06,12.01-7.39,15.68-13,3.67-5.61,5.51-12.34,5.51-20.2,0-11.83-4.05-21.14-12.16-27.92-8.11-6.78-19.3-10.17-33.58-10.17h-43.91v107.1h19.89v-31.21h24.17c1.43,0,2.81-.05,4.18-.12l21.83,31.33h21.42ZM620.18,433.82c4.44,3.72,6.65,8.95,6.65,15.68s-2.22,11.99-6.65,15.76c-4.44,3.78-11.04,5.66-19.81,5.66h-23.26v-42.69h23.26c8.77,0,15.38,1.86,19.81,5.58Z"/>
    <path class="st2" d="M784.27,429c-3.67-5.71-8.9-10.07-15.68-13.08-6.79-3.01-14.92-4.51-24.4-4.51h-44.06v107.1h19.89v-30.91h24.17c9.49,0,17.62-1.55,24.4-4.67,6.78-3.11,12.01-7.5,15.68-13.16s5.51-12.42,5.51-20.27-1.84-14.79-5.51-20.5ZM763.08,465.19c-4.44,3.72-11.04,5.58-19.81,5.58h-23.26v-42.53h23.26c8.77,0,15.38,1.86,19.81,5.58,4.44,3.72,6.66,8.95,6.66,15.68s-2.22,11.96-6.66,15.68Z"/>
    <polygon class="st2" points="860.62 501.68 860.62 472.3 912.33 472.3 912.33 455.93 860.62 455.93 860.62 428.24 918.91 428.24 918.91 411.41 840.73 411.41 840.73 518.51 921.06 518.51 921.06 501.68 860.62 501.68"/>
    <polygon class="st2" points="1026.93 411.41 1007.35 411.41 959.15 518.51 979.5 518.51 990.15 493.72 996.85 478.12 1016.98 431.24 1037.03 478.12 1043.71 493.72 1054.32 518.51 1075.28 518.51 1026.93 411.41"/>
    <polygon class="st2" points="1194.62 518.51 1218.03 518.51 1170.08 459.25 1215.12 411.41 1192.63 411.41 1139.84 466.35 1139.84 411.41 1119.95 411.41 1119.95 518.51 1139.84 518.51 1139.84 490.93 1156.82 473.69 1194.62 518.51"/>
  </g>
  <g>
    <g>
      <path class="st1" d="M205.92,618.64v-45.5h31.2v4.16h-26.39v37.18h27.36v4.16h-32.17ZM210.21,597.58v-4.1h24.05v4.1h-24.05Z"/>
      <path class="st1" d="M298.48,618.64l18.65-25.22v3.71l-17.55-23.99h5.52l14.76,20.02-2.15.07,14.75-20.08h5.2l-17.35,23.66v-3.38l18.59,25.22h-5.59l-15.73-21.38h2.02l-15.6,21.38h-5.52Z"/>
      <path class="st1" d="M410.22,618.64v-41.34h-15.99v-4.16h36.79v4.16h-15.99v41.34h-4.81Z"/>
      <path class="st1" d="M494.59,618.64v-45.5h31.2v4.16h-26.39v37.18h27.36v4.16h-32.17ZM498.88,597.58v-4.1h24.05v4.1h-24.05Z"/>
      <path class="st1" d="M593.97,618.64v-45.5h17.03c5.76,0,10.3,1.38,13.62,4.13,3.31,2.75,4.97,6.58,4.97,11.47,0,3.21-.75,5.97-2.24,8.29-1.49,2.32-3.63,4.09-6.4,5.33-2.77,1.23-6.09,1.85-9.94,1.85h-14.37l2.15-2.21v16.64h-4.81ZM598.78,602.39l-2.15-2.28h14.23c4.55,0,8.01-1,10.37-2.99,2.36-1.99,3.54-4.79,3.54-8.39s-1.18-6.46-3.54-8.45c-2.36-1.99-5.82-2.99-10.37-2.99h-14.23l2.15-2.28v27.37ZM625.04,618.64l-11.7-16.51h5.2l11.76,16.51h-5.26Z"/>
      <path class="st1" d="M696.87,618.64v-45.5h4.81v45.5h-4.81Z"/>
      <path class="st1" d="M792.29,619.03c-3.42,0-6.6-.57-9.52-1.72s-5.46-2.77-7.6-4.88c-2.15-2.1-3.81-4.55-5-7.35-1.19-2.79-1.79-5.86-1.79-9.2s.6-6.4,1.79-9.2c1.19-2.79,2.86-5.24,5-7.35,2.14-2.1,4.67-3.73,7.57-4.88,2.9-1.15,6.09-1.72,9.55-1.72s6.59.57,9.49,1.72c2.9,1.15,5.43,2.76,7.57,4.84,2.15,2.08,3.81,4.53,5,7.34,1.19,2.82,1.79,5.89,1.79,9.23s-.6,6.41-1.79,9.23c-1.19,2.82-2.86,5.26-5,7.34-2.14,2.08-4.67,3.69-7.57,4.84-2.9,1.15-6.07,1.72-9.49,1.72ZM792.29,614.74c2.73,0,5.25-.46,7.57-1.4,2.32-.93,4.33-2.25,6.05-3.96s3.04-3.71,4-5.98c.95-2.28,1.43-4.78,1.43-7.51s-.48-5.23-1.43-7.51c-.95-2.27-2.29-4.27-4-5.98-1.71-1.71-3.73-3.03-6.05-3.96s-4.84-1.4-7.57-1.4-5.26.47-7.6,1.4-4.38,2.25-6.11,3.96c-1.73,1.71-3.08,3.71-4.03,5.98-.95,2.28-1.43,4.78-1.43,7.51s.48,5.18,1.43,7.47c.95,2.3,2.3,4.3,4.03,6.01,1.73,1.71,3.77,3.03,6.11,3.96,2.34.93,4.88,1.4,7.6,1.4Z"/>
      <path class="st1" d="M882.83,618.64v-45.5h17.03c5.76,0,10.3,1.38,13.62,4.13,3.31,2.75,4.97,6.58,4.97,11.47,0,3.21-.75,5.97-2.24,8.29-1.49,2.32-3.63,4.09-6.4,5.33-2.77,1.23-6.09,1.85-9.94,1.85h-14.37l2.14-2.21v16.64h-4.81ZM887.64,602.39l-2.14-2.28h14.23c4.55,0,8.01-1,10.37-2.99,2.36-1.99,3.54-4.79,3.54-8.39s-1.18-6.46-3.54-8.45c-2.36-1.99-5.82-2.99-10.37-2.99h-14.23l2.14-2.28v27.37ZM913.9,618.64l-11.7-16.51h5.2l11.76,16.51h-5.26Z"/>
      <path class="st1" d="M998.27,619.03c-3.38,0-6.62-.55-9.72-1.66-3.1-1.1-5.49-2.52-7.18-4.26l1.89-3.71c1.6,1.56,3.76,2.87,6.47,3.93,2.71,1.06,5.56,1.59,8.55,1.59s5.19-.36,6.99-1.07c1.8-.71,3.12-1.68,3.96-2.89.85-1.21,1.27-2.56,1.27-4.03,0-1.78-.51-3.21-1.53-4.29-1.02-1.08-2.35-1.94-4-2.57-1.65-.63-3.47-1.18-5.46-1.66-1.99-.48-3.99-.99-5.98-1.53s-3.83-1.27-5.49-2.18c-1.67-.91-3.01-2.11-4.03-3.61-1.02-1.5-1.53-3.46-1.53-5.88,0-2.25.59-4.32,1.79-6.21,1.19-1.89,3.02-3.4,5.49-4.55,2.47-1.15,5.63-1.72,9.49-1.72,2.56,0,5.09.36,7.61,1.07,2.51.71,4.68,1.7,6.5,2.96l-1.62,3.83c-1.95-1.3-4.02-2.25-6.21-2.86-2.19-.61-4.3-.91-6.34-.91-2.73,0-4.98.37-6.76,1.1-1.78.74-3.09,1.72-3.93,2.96-.85,1.24-1.27,2.63-1.27,4.19,0,1.78.51,3.21,1.53,4.29,1.02,1.08,2.36,1.93,4.03,2.54,1.67.61,3.5,1.15,5.49,1.62,1.99.48,3.97,1,5.95,1.56,1.97.56,3.79,1.29,5.46,2.18,1.67.89,3.01,2.07,4.03,3.54,1.02,1.47,1.53,3.4,1.53,5.78,0,2.21-.61,4.26-1.82,6.14-1.21,1.89-3.07,3.4-5.56,4.55-2.49,1.15-5.69,1.72-9.59,1.72Z"/>
    </g>
    <rect class="st2" x="3.74" y="596.3" width="134.44" height="2.95"/>
    <rect class="st2" x="1079.84" y="596.3" width="134.44" height="2.95"/>
  </g>
  <g>
    <path class="st2" d="M801.57,238.04c-8.49.67-16.89,1.23-25.25,2.06-3.79.57-8.53,1.1-12.2,1.64-2.82.52-6.11,1.14-8.95,1.61-32.41,6.21-61.4,19.82-89.73,36.28-16.99,10.03-34.4,21.25-51.06,32.34-11.19,7.38-22.91,14.38-35.19,19.78-44.77,20.35-98.91,24.98-144.23,4.22-3.97-1.93-7.87-3.96-11.49-6.55l.36-.99c25.46.3,48.75-2.81,72.59-8.86,22.44-5.74,44.06-14.42,64.29-25.42,13.57-7.18,34.6-19.88,47.56-28.2,44.25-27.77,89.42-48.04,143.01-42.73,17.77,1.78,34.87,6.34,50.49,13.79l-.2,1.03h0Z"/>
    <g>
      <path class="st2" d="M519.35,55.29h9.64c-1.6-.06-3.21-.1-4.82-.1s-3.22.04-4.82.1Z"/>
      <path class="st2" d="M519.12,1c-99.91,0-180.91,69-180.91,168.91,0,58.51,27.79,110.52,70.87,143.59,22.21-.05,43.3-2.8,66.03-8.57,11.47-2.93,22.84-6.71,34.03-11.27-59.02-7.39-104.68-57.75-104.68-118.77,0-64.5,51.01-117.07,114.89-119.61,1.6-.06,205.82,0,205.82,0L766.17,0s-247.05,1-247.05,1Z"/>
    </g>
    <path class="st0" d="M886.69,183.59c-45.09,6.41-50.29,11.61-56.7,56.7-6.41-45.09-11.61-50.29-56.7-56.7,45.09-6.41,50.29-11.61,56.7-56.7,6.41,45.09,11.61,50.29,56.7,56.7Z"/>
    <path class="st0" d="M931.82,133.26c-19.99,2.84-22.29,5.15-25.14,25.14-2.84-19.99-5.15-22.29-25.14-25.14,19.99-2.84,22.29-5.15,25.14-25.14,2.84,19.99,5.15,22.29,25.14,25.14Z"/>
    <path class="st2" d="M482.91,367.4c74.32,9.78,137.95-20.19,196.53-63.3,40.56-29.12,84.5-48.35,135.31-46.24,17.32.59,34.55,3.16,51.34,7.26,0,0-.11.99-.11.99-19.08.53-38.11,1.08-56.98,3.76-39.61,5.09-74.52,21.72-107.16,44.15-10.45,7.19-21.02,15.03-31.73,21.82-40.4,25.99-87.74,44.97-136.48,42.62-17.54-.79-34.81-4.17-50.97-10.09l.23-.97h0Z"/>
  </g>
</svg>
