<?xml version="1.0" encoding="UTF-8"?>
<svg id="Layer_1" xmlns="http://www.w3.org/2000/svg" version="1.1" viewBox="0 0 1218.02 765.69">
  <!-- Generator: Adobe Illustrator 29.8.3, SVG Export Plug-In . SVG Version: 2.1.1 Build 3)  -->
  <defs>
    <style>
      .st0 {
        fill: #fb7185;
      }

      .st1 {
        fill: #0f172a;
      }

      .st2 {
        fill: #22d3ee;
      }
    </style>
  </defs>
  <g>
    <path class="st1" d="M80.48,499.46c-4.8,2.09-9.94,3.14-15.45,3.14s-10.74-.92-15.38-2.75c-4.64-1.84-8.67-4.44-12.09-7.8-3.42-3.37-6.1-7.34-8.03-11.93-1.94-4.59-2.91-9.64-2.91-15.15s.97-10.56,2.91-15.15c1.94-4.59,4.61-8.57,8.03-11.93,3.42-3.37,7.44-5.97,12.09-7.8,4.64-1.84,9.77-2.75,15.38-2.75s10.66,1.05,15.45,3.14c4.79,2.09,9.18,5.23,13.16,9.41l12.85-12.09c-5-5.92-11.12-10.38-18.36-13.39-7.24-3.01-15.25-4.51-24.02-4.51-8.26,0-15.86,1.35-22.8,4.05-6.94,2.7-13,6.55-18.21,11.55-5.2,5-9.23,10.81-12.09,17.44-2.86,6.63-4.28,13.98-4.28,22.03s1.43,15.4,4.28,22.03c2.85,6.63,6.86,12.45,12.01,17.44,5.15,5,11.19,8.85,18.13,11.55,6.94,2.7,14.53,4.05,22.8,4.05,8.87,0,16.93-1.53,24.17-4.59,7.24-3.06,13.36-7.55,18.36-13.46l-12.85-12.09c-3.98,4.28-8.37,7.47-13.16,9.56Z"/>
    <path class="st1" d="M155.29,518.51v-107.1h19.89v90.27h56v16.83h-75.89Z"/>
    <polygon class="st1" points="297.89 501.68 297.89 472.3 349.6 472.3 349.6 455.93 297.89 455.93 297.89 428.24 356.18 428.24 356.18 411.41 278 411.41 278 518.51 358.32 518.51 358.32 501.68 297.89 501.68"/>
    <polygon class="st1" points="464.2 411.41 444.62 411.41 396.42 518.51 416.77 518.51 427.41 493.72 434.12 478.12 454.25 431.24 474.3 478.12 480.98 493.72 491.59 518.51 512.55 518.51 464.2 411.41"/>
    <path class="st1" d="M648.72,518.51l-24.63-35.14c.54-.22,1.08-.43,1.6-.66,6.78-3.06,12.01-7.39,15.68-13,3.67-5.61,5.51-12.34,5.51-20.2,0-11.83-4.05-21.14-12.16-27.92-8.11-6.78-19.3-10.17-33.58-10.17h-43.91v107.1h19.89v-31.21h24.17c1.43,0,2.81-.05,4.18-.12l21.83,31.33h21.42ZM620.18,433.82c4.44,3.72,6.65,8.95,6.65,15.68s-2.22,11.99-6.65,15.76c-4.44,3.78-11.04,5.66-19.81,5.66h-23.26v-42.69h23.26c8.77,0,15.38,1.86,19.81,5.58Z"/>
    <path class="st2" d="M784.27,429c-3.67-5.71-8.9-10.07-15.68-13.08-6.79-3.01-14.92-4.51-24.4-4.51h-44.06v107.1h19.89v-30.91h24.17c9.49,0,17.62-1.55,24.4-4.67,6.78-3.11,12.01-7.5,15.68-13.16s5.51-12.42,5.51-20.27-1.84-14.79-5.51-20.5ZM763.08,465.19c-4.44,3.72-11.04,5.58-19.81,5.58h-23.26v-42.53h23.26c8.77,0,15.38,1.86,19.81,5.58,4.44,3.72,6.66,8.95,6.66,15.68s-2.22,11.96-6.66,15.68Z"/>
    <polygon class="st2" points="860.62 501.68 860.62 472.3 912.33 472.3 912.33 455.93 860.62 455.93 860.62 428.24 918.91 428.24 918.91 411.41 840.73 411.41 840.73 518.51 921.06 518.51 921.06 501.68 860.62 501.68"/>
    <polygon class="st2" points="1026.93 411.41 1007.35 411.41 959.15 518.51 979.5 518.51 990.15 493.72 996.85 478.12 1016.98 431.24 1037.03 478.12 1043.71 493.72 1054.32 518.51 1075.28 518.51 1026.93 411.41"/>
    <polygon class="st2" points="1194.62 518.51 1218.03 518.51 1170.08 459.25 1215.12 411.41 1192.63 411.41 1139.84 466.35 1139.84 411.41 1119.95 411.41 1119.95 518.51 1139.84 518.51 1139.84 490.93 1156.82 473.69 1194.62 518.51"/>
  </g>
  <g>
    <path class="st1" d="M108.8,687.12c-1.04.4-2.16.6-3.36.6-1.26,0-2.43-.21-3.51-.65-1.08-.43-2.02-1.04-2.82-1.83-.8-.79-1.42-1.71-1.88-2.76-.45-1.05-.67-2.21-.67-3.46s.23-2.42.67-3.46c.45-1.05,1.08-1.97,1.88-2.76s1.74-1.4,2.82-1.83,2.25-.65,3.51-.65,2.32.2,3.36.58c1.04.39,1.99,1.03,2.85,1.91l1.41-1.41c-.92-1.02-2.05-1.79-3.39-2.29s-2.77-.76-4.29-.76-3.04.26-4.38.79c-1.34.53-2.5,1.27-3.5,2.23-.99.96-1.76,2.09-2.31,3.39s-.82,2.72-.82,4.26.27,2.96.82,4.26c.55,1.3,1.31,2.43,2.3,3.39.98.96,2.14,1.71,3.48,2.23,1.34.53,2.8.79,4.38.79s2.98-.26,4.32-.78c1.34-.52,2.47-1.29,3.39-2.31l-1.41-1.41c-.86.88-1.81,1.52-2.85,1.92Z"/>
    <polygon class="st1" points="129.23 687.6 129.23 668.52 127.01 668.52 127.01 689.52 140.99 689.52 140.99 687.6 129.23 687.6"/>
    <g>
      <polygon class="st1" points="156.41 679.8 167.27 679.8 167.27 677.91 156.41 677.91 156.41 670.44 168.59 670.44 168.59 668.52 154.19 668.52 154.19 689.52 169.04 689.52 169.04 687.6 156.41 687.6 156.41 679.8"/>
      <path class="st1" d="M190.01,668.52l-9.6,21h2.31l2.51-5.61h11.72l2.51,5.61h2.34l-9.6-21h-2.19ZM186.03,682.11l5.05-11.29,5.05,11.29h-10.11Z"/>
      <polygon class="st1" points="230.15 668.52 230.15 685.55 216.62 668.52 214.79 668.52 214.79 689.52 217.01 689.52 217.01 672.49 230.51 689.52 232.34 689.52 232.34 668.52 230.15 668.52"/>
    </g>
    <g>
      <polygon class="st1" points="250.91 679.8 261.77 679.8 261.77 677.91 250.91 677.91 250.91 670.44 263.09 670.44 263.09 668.52 248.69 668.52 248.69 689.52 263.54 689.52 263.54 687.6 250.91 687.6 250.91 679.8"/>
      <path class="st1" d="M295.04,689.52l-5.14-7.21c.28-.09.56-.19.82-.3,1.28-.57,2.26-1.39,2.96-2.46.69-1.07,1.03-2.34,1.03-3.83,0-2.26-.76-4.02-2.29-5.29-1.53-1.27-3.63-1.91-6.29-1.91h-7.86v21h2.22v-6.66h5.64c.59,0,1.15-.04,1.68-.11l4.8,6.77h2.43ZM286.07,680.97h-5.58v-10.53h5.58c2.1,0,3.69.46,4.78,1.38,1.09.92,1.64,2.22,1.64,3.9s-.55,2.95-1.64,3.87c-1.09.92-2.69,1.38-4.78,1.38Z"/>
    </g>
    <g>
      <path class="st1" d="M337.89,679.66c-.77-.41-1.61-.74-2.52-1-.91-.26-1.83-.5-2.75-.72-.92-.22-1.77-.47-2.54-.75-.77-.28-1.39-.67-1.86-1.17-.47-.5-.71-1.16-.71-1.98,0-.72.2-1.36.58-1.93.39-.57.99-1.02,1.81-1.37.82-.34,1.86-.51,3.12-.51.94,0,1.92.14,2.93.42,1.01.28,1.96.72,2.86,1.32l.75-1.77c-.84-.58-1.84-1.04-3-1.36-1.16-.33-2.33-.5-3.51-.5-1.78,0-3.24.26-4.38.79-1.14.53-1.98,1.23-2.53,2.1-.55.87-.83,1.83-.83,2.87,0,1.12.23,2.03.71,2.71.47.69,1.09,1.25,1.86,1.67s1.61.75,2.54,1c.92.25,1.84.49,2.76.71.92.22,1.76.48,2.52.76.76.29,1.38.69,1.85,1.19.47.5.71,1.16.71,1.98,0,.68-.2,1.3-.58,1.86-.39.56-1,1-1.83,1.33-.83.33-1.91.5-3.23.5s-2.7-.25-3.94-.74c-1.25-.49-2.25-1.09-2.99-1.81l-.87,1.71c.78.8,1.88,1.46,3.31,1.96,1.43.51,2.92.76,4.48.76,1.8,0,3.27-.26,4.42-.79,1.15-.53,2-1.23,2.57-2.1.56-.87.84-1.82.84-2.83,0-1.1-.24-1.99-.71-2.67-.47-.68-1.09-1.23-1.86-1.64Z"/>
      <path class="st1" d="M367.25,669.37c-1.28-.57-2.81-.86-4.59-.86h-7.86v21h2.22v-6.63h5.64c1.78,0,3.31-.29,4.59-.87,1.28-.58,2.26-1.41,2.96-2.47.69-1.07,1.03-2.34,1.03-3.83s-.34-2.82-1.03-3.88c-.69-1.07-1.68-1.89-2.96-2.46ZM367.38,679.57c-1.09.91-2.69,1.37-4.78,1.37h-5.58v-10.5h5.58c2.1,0,3.69.46,4.78,1.38,1.09.92,1.64,2.22,1.64,3.9s-.55,2.95-1.64,3.85Z"/>
      <path class="st1" d="M400.18,689.52h2.34l-9.6-21h-2.19l-9.6,21h2.31l2.51-5.61h11.72l2.51,5.61ZM386.76,682.11l5.05-11.29,5.05,11.29h-10.11Z"/>
    </g>
    <g>
      <path class="st1" d="M418.09,672.79c.8-.79,1.74-1.4,2.82-1.83s2.25-.65,3.51-.65,2.32.2,3.36.58c1.04.39,1.99,1.03,2.85,1.91l1.41-1.41c-.92-1.02-2.05-1.79-3.39-2.29s-2.77-.76-4.29-.76-3.04.26-4.38.79c-1.34.53-2.5,1.27-3.5,2.23-.99.96-1.76,2.09-2.31,3.39s-.82,2.72-.82,4.26.27,2.96.82,4.26c.55,1.3,1.31,2.43,2.3,3.39.98.96,2.14,1.71,3.48,2.23,1.34.53,2.8.79,4.38.79s2.98-.26,4.32-.78c1.34-.52,2.47-1.29,3.39-2.31l-1.41-1.41c-.86.88-1.81,1.52-2.85,1.92-1.04.4-2.16.6-3.36.6-1.26,0-2.43-.21-3.51-.65-1.08-.43-2.02-1.04-2.82-1.83-.8-.79-1.42-1.71-1.88-2.76-.45-1.05-.67-2.21-.67-3.46s.23-2.42.67-3.46c.45-1.05,1.08-1.97,1.88-2.76Z"/>
      <polygon class="st1" points="448.21 679.8 459.07 679.8 459.07 677.91 448.21 677.91 448.21 670.44 460.39 670.44 460.39 668.52 445.99 668.52 445.99 689.52 460.84 689.52 460.84 687.6 448.21 687.6 448.21 679.8"/>
      <path class="st1" d="M488.49,681.3c-.47-.68-1.09-1.23-1.86-1.64-.77-.41-1.61-.74-2.52-1-.91-.26-1.83-.5-2.75-.72-.92-.22-1.77-.47-2.54-.75-.77-.28-1.39-.67-1.86-1.17-.47-.5-.71-1.16-.71-1.98,0-.72.2-1.36.58-1.93.39-.57.99-1.02,1.81-1.37.82-.34,1.86-.51,3.12-.51.94,0,1.92.14,2.93.42,1.01.28,1.96.72,2.86,1.32l.75-1.77c-.84-.58-1.84-1.04-3-1.36-1.16-.33-2.33-.5-3.51-.5-1.78,0-3.24.26-4.38.79-1.14.53-1.98,1.23-2.53,2.1-.55.87-.83,1.83-.83,2.87,0,1.12.23,2.03.71,2.71.47.69,1.09,1.25,1.86,1.67s1.61.75,2.54,1c.92.25,1.84.49,2.76.71.92.22,1.76.48,2.52.76.76.29,1.38.69,1.85,1.19.47.5.71,1.16.71,1.98,0,.68-.2,1.3-.58,1.86-.39.56-1,1-1.83,1.33-.83.33-1.91.5-3.23.5s-2.7-.25-3.94-.74c-1.25-.49-2.25-1.09-2.99-1.81l-.87,1.71c.78.8,1.88,1.46,3.31,1.96,1.43.51,2.92.76,4.48.76,1.8,0,3.27-.26,4.42-.79,1.15-.53,2-1.23,2.57-2.1.56-.87.84-1.82.84-2.83,0-1.1-.24-1.99-.71-2.67Z"/>
    </g>
    <path class="st0" d="M505.02,686.85c-.31-.3-.68-.45-1.12-.45s-.81.15-1.12.45c-.31.3-.46.69-.46,1.17s.16.85.46,1.17c.31.32.69.48,1.12.48s.82-.16,1.12-.48c.31-.32.46-.71.46-1.17s-.15-.87-.46-1.17Z"/>
    <g>
      <path class="st1" d="M548.43,679.66c-.77-.41-1.61-.74-2.52-1-.91-.26-1.83-.5-2.75-.72-.92-.22-1.77-.47-2.54-.75-.77-.28-1.39-.67-1.86-1.17-.47-.5-.71-1.16-.71-1.98,0-.72.19-1.36.58-1.93.39-.57.99-1.02,1.81-1.37.82-.34,1.86-.51,3.12-.51.94,0,1.92.14,2.92.42,1.01.28,1.96.72,2.87,1.32l.75-1.77c-.84-.58-1.84-1.04-3-1.36-1.16-.33-2.33-.5-3.51-.5-1.78,0-3.24.26-4.38.79-1.14.53-1.99,1.23-2.54,2.1-.55.87-.83,1.83-.83,2.87,0,1.12.24,2.03.71,2.71.47.69,1.09,1.25,1.86,1.67.77.42,1.61.75,2.53,1s1.84.49,2.76.71c.92.22,1.76.48,2.52.76.76.29,1.38.69,1.84,1.19s.71,1.16.71,1.98c0,.68-.19,1.3-.58,1.86-.39.56-1,1-1.83,1.33s-1.9.5-3.22.5-2.7-.25-3.95-.74c-1.25-.49-2.25-1.09-2.98-1.81l-.87,1.71c.78.8,1.88,1.46,3.31,1.96s2.93.76,4.49.76c1.8,0,3.27-.26,4.42-.79,1.15-.53,2-1.23,2.57-2.1.56-.87.84-1.82.84-2.83,0-1.1-.24-1.99-.71-2.67s-1.09-1.23-1.86-1.64Z"/>
      <polygon class="st1" points="561.73 670.44 569.11 670.44 569.11 689.52 571.33 689.52 571.33 670.44 578.71 670.44 578.71 668.52 561.73 668.52 561.73 670.44"/>
      <path class="st1" d="M608.53,689.52l-5.14-7.21c.28-.09.56-.19.82-.3,1.28-.57,2.26-1.39,2.96-2.46.69-1.07,1.04-2.34,1.04-3.83,0-2.26-.77-4.02-2.3-5.29-1.53-1.27-3.63-1.91-6.29-1.91h-7.86v21h2.22v-6.66h5.64c.59,0,1.15-.04,1.68-.11l4.79,6.77h2.43ZM599.56,680.97h-5.58v-10.53h5.58c2.1,0,3.7.46,4.79,1.38s1.63,2.22,1.63,3.9-.54,2.95-1.63,3.87-2.68,1.38-4.79,1.38Z"/>
    </g>
    <g>
      <path class="st1" d="M640.02,671.37c-.99-.96-2.16-1.7-3.49-2.23-1.34-.53-2.8-.79-4.38-.79s-3.07.26-4.41.79c-1.34.53-2.51,1.28-3.5,2.25-.99.97-1.76,2.1-2.31,3.39s-.83,2.71-.83,4.25.28,2.96.83,4.25,1.32,2.42,2.31,3.39c.99.97,2.16,1.72,3.51,2.25,1.35.53,2.81.79,4.39.79s3.04-.26,4.38-.79c1.34-.53,2.5-1.27,3.49-2.23.99-.96,1.76-2.09,2.31-3.39.55-1.3.83-2.72.83-4.26s-.28-2.96-.83-4.26c-.55-1.3-1.32-2.43-2.31-3.39ZM640.27,682.48c-.44,1.05-1.06,1.97-1.85,2.76-.79.79-1.72,1.4-2.79,1.83-1.07.43-2.23.65-3.5.65s-2.43-.21-3.51-.65c-1.08-.43-2.02-1.04-2.82-1.83-.8-.79-1.42-1.71-1.86-2.77-.44-1.06-.66-2.21-.66-3.45s.22-2.42.66-3.46c.44-1.05,1.06-1.97,1.86-2.76s1.74-1.4,2.82-1.83,2.25-.65,3.51-.65,2.42.22,3.5.65,2,1.04,2.79,1.83,1.41,1.71,1.85,2.76c.44,1.05.66,2.21.66,3.46s-.22,2.42-.66,3.46Z"/>
      <polygon class="st1" points="673 685.55 659.47 668.52 657.64 668.52 657.64 689.52 659.86 689.52 659.86 672.49 673.36 689.52 675.19 689.52 675.19 668.52 673 668.52 673 685.55"/>
      <path class="st1" d="M706.33,686.07c-.66.48-1.35.86-2.08,1.11-1.07.36-2.21.54-3.41.54-1.28,0-2.46-.21-3.55-.65-1.09-.43-2.04-1.04-2.85-1.83-.81-.79-1.44-1.71-1.89-2.77-.45-1.06-.67-2.21-.67-3.45s.22-2.42.67-3.46,1.08-1.97,1.89-2.76c.81-.79,1.76-1.4,2.85-1.83,1.09-.43,2.28-.65,3.58-.65,1.22,0,2.36.19,3.42.57,1.06.38,2.03,1.01,2.91,1.89l1.38-1.41c-.94-1.02-2.08-1.78-3.41-2.28s-2.79-.75-4.39-.75-3.08.26-4.42.79c-1.35.53-2.53,1.27-3.53,2.23s-1.78,2.09-2.33,3.39-.83,2.72-.83,4.26.28,2.96.83,4.26c.55,1.3,1.32,2.43,2.31,3.39.99.96,2.16,1.71,3.51,2.23,1.35.53,2.82.79,4.42.79,1.46,0,2.86-.22,4.2-.67s2.51-1.11,3.51-2v-8.01h-2.13v7.05Z"/>
    </g>
    <g>
      <polygon class="st1" points="726.46 679.8 737.32 679.8 737.32 677.91 726.46 677.91 726.46 670.44 738.64 670.44 738.64 668.52 724.24 668.52 724.24 689.52 739.09 689.52 739.09 687.6 726.46 687.6 726.46 679.8"/>
      <path class="st1" d="M765.45,682.31c.28-.09.56-.19.82-.3,1.28-.57,2.26-1.39,2.96-2.46.69-1.07,1.04-2.34,1.04-3.83,0-2.26-.77-4.02-2.29-5.29-1.53-1.27-3.63-1.91-6.29-1.91h-7.86v21h2.22v-6.66h5.64c.59,0,1.15-.04,1.68-.11l4.79,6.77h2.43l-5.14-7.21ZM761.62,680.97h-5.58v-10.53h5.58c2.1,0,3.7.46,4.79,1.38s1.63,2.22,1.63,3.9-.54,2.95-1.63,3.87-2.68,1.38-4.79,1.38Z"/>
    </g>
    <g>
      <rect class="st1" x="802.39" y="668.52" width="2.22" height="21"/>
      <polygon class="st1" points="831.91 684.07 822.79 668.52 820.96 668.52 820.96 689.52 823.09 689.52 823.09 672.82 831.34 686.85 832.39 686.85 840.64 672.72 840.64 689.52 842.77 689.52 842.77 668.52 840.94 668.52 831.91 684.07"/>
      <path class="st1" d="M871.57,669.37c-1.28-.57-2.81-.86-4.59-.86h-7.86v21h2.22v-6.63h5.64c1.78,0,3.31-.29,4.59-.87,1.28-.58,2.26-1.41,2.96-2.47.69-1.07,1.04-2.34,1.04-3.83s-.35-2.82-1.04-3.88c-.69-1.07-1.68-1.89-2.96-2.46ZM871.71,679.57c-1.09.91-2.68,1.37-4.79,1.37h-5.58v-10.5h5.58c2.1,0,3.7.46,4.79,1.38s1.63,2.22,1.63,3.9-.54,2.95-1.63,3.85Z"/>
      <path class="st1" d="M906.64,689.52l-5.14-7.21c.28-.09.56-.19.82-.3,1.28-.57,2.26-1.39,2.96-2.46.69-1.07,1.04-2.34,1.04-3.83,0-2.26-.77-4.02-2.29-5.29-1.53-1.27-3.63-1.91-6.29-1.91h-7.86v21h2.22v-6.66h5.64c.59,0,1.15-.04,1.68-.11l4.79,6.77h2.43ZM897.67,680.97h-5.58v-10.53h5.58c2.1,0,3.7.46,4.79,1.38s1.63,2.22,1.63,3.9-.54,2.95-1.63,3.87-2.68,1.38-4.79,1.38Z"/>
    </g>
    <g>
      <polygon class="st1" points="923.29 679.8 934.15 679.8 934.15 677.91 923.29 677.91 923.29 670.44 935.47 670.44 935.47 668.52 921.07 668.52 921.07 689.52 935.92 689.52 935.92 687.6 923.29 687.6 923.29 679.8"/>
      <path class="st1" d="M961.71,679.66c-.77-.41-1.61-.74-2.52-1-.91-.26-1.83-.5-2.75-.72-.92-.22-1.77-.47-2.54-.75-.77-.28-1.39-.67-1.86-1.17-.47-.5-.71-1.16-.71-1.98,0-.72.19-1.36.58-1.93.39-.57.99-1.02,1.81-1.37.82-.34,1.86-.51,3.12-.51.94,0,1.92.14,2.92.42,1.01.28,1.96.72,2.87,1.32l.75-1.77c-.84-.58-1.84-1.04-3-1.36-1.16-.33-2.33-.5-3.51-.5-1.78,0-3.24.26-4.38.79-1.14.53-1.99,1.23-2.54,2.1-.55.87-.83,1.83-.83,2.87,0,1.12.24,2.03.71,2.71.47.69,1.09,1.25,1.86,1.67.77.42,1.61.75,2.53,1s1.84.49,2.76.71c.92.22,1.76.48,2.52.76.76.29,1.38.69,1.84,1.19s.71,1.16.71,1.98c0,.68-.19,1.3-.58,1.86-.39.56-1,1-1.83,1.33s-1.9.5-3.22.5-2.7-.25-3.95-.74c-1.25-.49-2.25-1.09-2.98-1.81l-.87,1.71c.78.8,1.88,1.46,3.31,1.96s2.93.76,4.49.76c1.8,0,3.27-.26,4.42-.79,1.15-.53,2-1.23,2.57-2.1.56-.87.84-1.82.84-2.83,0-1.1-.24-1.99-.71-2.67s-1.09-1.23-1.86-1.64Z"/>
      <path class="st1" d="M989.66,679.66c-.77-.41-1.61-.74-2.52-1-.91-.26-1.83-.5-2.75-.72-.92-.22-1.77-.47-2.54-.75-.77-.28-1.39-.67-1.86-1.17-.47-.5-.71-1.16-.71-1.98,0-.72.19-1.36.58-1.93.39-.57.99-1.02,1.81-1.37.82-.34,1.86-.51,3.12-.51.94,0,1.92.14,2.92.42,1.01.28,1.96.72,2.87,1.32l.75-1.77c-.84-.58-1.84-1.04-3-1.36-1.16-.33-2.33-.5-3.51-.5-1.78,0-3.24.26-4.38.79-1.14.53-1.99,1.23-2.54,2.1-.55.87-.83,1.83-.83,2.87,0,1.12.24,2.03.71,2.71.47.69,1.09,1.25,1.86,1.67.77.42,1.61.75,2.53,1s1.84.49,2.76.71c.92.22,1.76.48,2.52.76.76.29,1.38.69,1.84,1.19s.71,1.16.71,1.98c0,.68-.19,1.3-.58,1.86-.39.56-1,1-1.83,1.33s-1.9.5-3.22.5-2.7-.25-3.95-.74c-1.25-.49-2.25-1.09-2.98-1.81l-.87,1.71c.78.8,1.88,1.46,3.31,1.96s2.93.76,4.49.76c1.8,0,3.27-.26,4.42-.79,1.15-.53,2-1.23,2.57-2.1.56-.87.84-1.82.84-2.83,0-1.1-.24-1.99-.71-2.67s-1.09-1.23-1.86-1.64Z"/>
      <rect class="st1" x="1006.57" y="668.52" width="2.22" height="21"/>
      <path class="st1" d="M1044.5,674.76c-.55-1.3-1.32-2.43-2.31-3.39-.99-.96-2.16-1.7-3.49-2.23-1.34-.53-2.8-.79-4.38-.79s-3.07.26-4.41.79c-1.34.53-2.51,1.28-3.5,2.25-.99.97-1.76,2.1-2.31,3.39s-.83,2.71-.83,4.25.28,2.96.83,4.25,1.32,2.42,2.31,3.39c.99.97,2.16,1.72,3.51,2.25,1.35.53,2.81.79,4.39.79s3.04-.26,4.38-.79c1.34-.53,2.5-1.27,3.49-2.23.99-.96,1.76-2.09,2.31-3.39.55-1.3.83-2.72.83-4.26s-.28-2.96-.83-4.26ZM1042.45,682.48c-.44,1.05-1.06,1.97-1.85,2.76-.79.79-1.72,1.4-2.79,1.83-1.07.43-2.23.65-3.5.65s-2.43-.21-3.51-.65c-1.08-.43-2.02-1.04-2.82-1.83-.8-.79-1.42-1.71-1.86-2.77-.44-1.06-.66-2.21-.66-3.45s.22-2.42.66-3.46c.44-1.05,1.06-1.97,1.86-2.76s1.74-1.4,2.82-1.83,2.25-.65,3.51-.65,2.42.22,3.5.65,2,1.04,2.79,1.83,1.41,1.71,1.85,2.76c.44,1.05.66,2.21.66,3.46s-.22,2.42-.66,3.46Z"/>
    </g>
    <g>
      <polygon class="st1" points="1075.18 685.55 1061.65 668.52 1059.82 668.52 1059.82 689.52 1062.04 689.52 1062.04 672.49 1075.54 689.52 1077.37 689.52 1077.37 668.52 1075.18 668.52 1075.18 685.55"/>
      <path class="st1" d="M1106.63,681.3c-.47-.68-1.09-1.23-1.86-1.64-.77-.41-1.61-.74-2.52-1-.91-.26-1.83-.5-2.75-.72-.92-.22-1.77-.47-2.54-.75-.77-.28-1.39-.67-1.86-1.17-.47-.5-.71-1.16-.71-1.98,0-.72.19-1.36.58-1.93.39-.57.99-1.02,1.81-1.37.82-.34,1.86-.51,3.12-.51.94,0,1.92.14,2.92.42,1.01.28,1.96.72,2.87,1.32l.75-1.77c-.84-.58-1.84-1.04-3-1.36-1.16-.33-2.33-.5-3.51-.5-1.78,0-3.24.26-4.38.79-1.14.53-1.99,1.23-2.54,2.1-.55.87-.83,1.83-.83,2.87,0,1.12.24,2.03.71,2.71.47.69,1.09,1.25,1.86,1.67.77.42,1.61.75,2.53,1s1.84.49,2.76.71c.92.22,1.76.48,2.52.76.76.29,1.38.69,1.84,1.19s.71,1.16.71,1.98c0,.68-.19,1.3-.58,1.86-.39.56-1,1-1.83,1.33s-1.9.5-3.22.5-2.7-.25-3.95-.74c-1.25-.49-2.25-1.09-2.98-1.81l-.87,1.71c.78.8,1.88,1.46,3.31,1.96s2.93.76,4.49.76c1.8,0,3.27-.26,4.42-.79,1.15-.53,2-1.23,2.57-2.1.56-.87.84-1.82.84-2.83,0-1.1-.24-1.99-.71-2.67Z"/>
    </g>
    <path class="st0" d="M1122.04,689.67c-.44,0-.81-.16-1.12-.48-.31-.32-.46-.71-.46-1.17s.16-.87.46-1.17c.31-.3.69-.45,1.12-.45s.82.15,1.12.45c.31.3.46.69.46,1.17s-.15.85-.46,1.17c-.31.32-.68.48-1.12.48Z"/>
  </g>
  <g>
    <g>
      <g>
        <polygon class="st2" points="17.92 743.82 6.54 743.82 6.54 735.71 4.61 735.71 4.61 753.91 6.54 753.91 6.54 745.51 17.92 745.51 17.92 753.91 19.82 753.91 19.82 735.71 17.92 735.71 17.92 743.82"/>
        <path class="st2" d="M47.73,741.12c-.48-1.13-1.14-2.11-2-2.94-.86-.83-1.87-1.48-3.03-1.94s-2.43-.69-3.8-.69-2.66.23-3.82.69c-1.16.46-2.17,1.11-3.03,1.95s-1.53,1.82-2,2.94c-.48,1.12-.71,2.34-.71,3.68s.24,2.56.71,3.68c.48,1.12,1.14,2.1,2,2.94.86.84,1.87,1.49,3.04,1.95,1.17.46,2.44.69,3.81.69s2.63-.23,3.8-.69c1.16-.46,2.17-1.1,3.03-1.94s1.52-1.81,2-2.94c.48-1.13.71-2.36.71-3.69s-.24-2.57-.71-3.69ZM45.95,747.82c-.38.91-.91,1.71-1.6,2.39-.69.68-1.49,1.21-2.42,1.59-.93.37-1.94.56-3.03.56s-2.11-.19-3.04-.56c-.94-.37-1.75-.9-2.44-1.59-.69-.68-1.23-1.49-1.61-2.41-.38-.92-.57-1.92-.57-2.99s.19-2.09.57-3c.38-.91.92-1.71,1.61-2.39.69-.68,1.51-1.21,2.44-1.59.94-.37,1.95-.56,3.04-.56s2.1.19,3.03.56c.93.37,1.73.9,2.42,1.59.68.68,1.22,1.48,1.6,2.39.38.91.57,1.91.57,3s-.19,2.09-.57,3Z"/>
      </g>
      <g>
        <path class="st2" d="M70.89,746.06c0,2.15-.49,3.74-1.46,4.76-.97,1.02-2.35,1.53-4.13,1.53s-3.14-.51-4.11-1.53-1.46-2.61-1.46-4.76v-10.35h-1.92v10.43c0,2.62.67,4.59,2,5.93,1.33,1.33,3.16,2,5.49,2s4.15-.67,5.47-2,1.99-3.31,1.99-5.93v-10.43h-1.87v10.35Z"/>
        <path class="st2" d="M93.34,745.37c-.67-.36-1.4-.65-2.18-.87-.79-.22-1.58-.43-2.38-.62-.8-.19-1.53-.41-2.2-.65-.67-.24-1.21-.58-1.61-1.01-.41-.43-.61-1-.61-1.72,0-.62.17-1.18.51-1.68.34-.49.86-.89,1.57-1.18.71-.29,1.61-.44,2.7-.44.81,0,1.66.12,2.53.36.88.24,1.7.62,2.48,1.14l.65-1.53c-.73-.5-1.6-.9-2.6-1.18-1.01-.29-2.02-.43-3.04-.43-1.54,0-2.81.23-3.8.69-.99.46-1.72,1.07-2.2,1.82-.48.75-.71,1.58-.71,2.48,0,.97.2,1.75.61,2.35.41.6.94,1.08,1.61,1.44.67.36,1.4.66,2.2.87.8.22,1.59.42,2.39.61.8.19,1.52.41,2.18.66.66.25,1.19.59,1.6,1.03.41.43.61,1.01.61,1.72,0,.59-.17,1.13-.51,1.61-.34.49-.87.87-1.59,1.16s-1.65.43-2.79.43-2.34-.21-3.42-.64c-1.08-.42-1.95-.95-2.59-1.57l-.75,1.48c.68.69,1.63,1.26,2.87,1.7,1.24.44,2.53.66,3.89.66,1.56,0,2.84-.23,3.83-.69,1-.46,1.74-1.07,2.22-1.82.48-.75.73-1.57.73-2.46,0-.95-.2-1.72-.61-2.31-.41-.59-.95-1.06-1.61-1.42Z"/>
        <polygon class="st2" points="106.87 752.25 106.87 745.49 116.28 745.49 116.28 743.85 106.87 743.85 106.87 737.38 117.43 737.38 117.43 735.71 104.95 735.71 104.95 753.91 117.82 753.91 117.82 752.25 106.87 752.25"/>
      </g>
      <g>
        <polygon class="st2" points="157.36 751.47 151.98 735.71 150.21 735.71 144.78 751.4 139.52 735.71 137.55 735.71 143.69 753.91 145.69 753.91 151.04 738.42 156.37 753.91 158.4 753.91 164.54 735.71 162.69 735.71 157.36 751.47"/>
        <path class="st2" d="M178.11,735.71l-8.32,18.2h2l2.18-4.86h10.16l2.18,4.86h2.03l-8.32-18.2h-1.9ZM174.66,747.49l4.38-9.79,4.38,9.79h-8.76Z"/>
        <path class="st2" d="M207.74,746.79c-.41-.59-.95-1.06-1.61-1.42-.67-.36-1.4-.65-2.18-.87-.79-.22-1.58-.43-2.38-.62-.8-.19-1.53-.41-2.2-.65-.67-.24-1.21-.58-1.61-1.01-.41-.43-.61-1-.61-1.72,0-.62.17-1.18.51-1.68.34-.49.86-.89,1.57-1.18.71-.29,1.61-.44,2.7-.44.81,0,1.66.12,2.53.36.88.24,1.7.62,2.48,1.14l.65-1.53c-.73-.5-1.6-.9-2.6-1.18-1.01-.29-2.02-.43-3.04-.43-1.54,0-2.81.23-3.8.69-.99.46-1.72,1.07-2.2,1.82-.48.75-.71,1.58-.71,2.48,0,.97.2,1.75.61,2.35.41.6.94,1.08,1.61,1.44.67.36,1.4.66,2.2.87.8.22,1.59.42,2.39.61.8.19,1.52.41,2.18.66.66.25,1.19.59,1.6,1.03.41.43.61,1.01.61,1.72,0,.59-.17,1.13-.51,1.61-.34.49-.87.87-1.59,1.16s-1.65.43-2.79.43-2.34-.21-3.42-.64c-1.08-.42-1.95-.95-2.59-1.57l-.75,1.48c.68.69,1.63,1.26,2.87,1.7,1.24.44,2.53.66,3.89.66,1.56,0,2.84-.23,3.83-.69,1-.46,1.74-1.07,2.22-1.82.48-.75.73-1.57.73-2.46,0-.95-.2-1.72-.61-2.31Z"/>
      </g>
      <g>
        <polygon class="st2" points="231.04 743.82 219.66 743.82 219.66 735.71 217.73 735.71 217.73 753.91 219.66 753.91 219.66 745.51 231.04 745.51 231.04 753.91 232.94 753.91 232.94 735.71 231.04 735.71 231.04 743.82"/>
        <rect class="st2" x="244.07" y="735.71" width="1.92" height="18.2"/>
        <polygon class="st2" points="270.43 750.47 258.71 735.71 257.12 735.71 257.12 753.91 259.05 753.91 259.05 739.15 270.75 753.91 272.33 753.91 272.33 735.71 270.43 735.71 270.43 750.47"/>
        <path class="st2" d="M296.28,750.92c-.57.42-1.17.74-1.81.96-.93.31-1.91.47-2.95.47-1.11,0-2.14-.19-3.08-.56-.94-.37-1.77-.9-2.47-1.59-.7-.68-1.25-1.49-1.64-2.41-.39-.92-.58-1.92-.58-2.99s.19-2.09.58-3c.39-.91.94-1.71,1.64-2.39.7-.68,1.52-1.21,2.47-1.59.94-.37,1.98-.56,3.11-.56,1.06,0,2.05.17,2.96.49.92.33,1.76.88,2.52,1.64l1.2-1.22c-.81-.88-1.8-1.54-2.95-1.98-1.15-.43-2.42-.65-3.81-.65s-2.67.23-3.83.69c-1.17.46-2.19,1.11-3.06,1.94-.87.83-1.54,1.81-2.02,2.94-.48,1.13-.71,2.36-.71,3.69s.24,2.57.71,3.69c.48,1.13,1.14,2.11,2,2.94s1.87,1.48,3.04,1.94c1.17.46,2.45.69,3.83.69,1.27,0,2.48-.2,3.64-.58,1.16-.39,2.18-.97,3.04-1.73v-6.94h-1.85v6.11Z"/>
      </g>
    </g>
    <g>
      <path class="st2" d="M405.02,736.87c-1.46-.77-3.17-1.16-5.11-1.16h-7.41v18.2h7.41c1.94,0,3.64-.39,5.11-1.16,1.46-.77,2.6-1.84,3.42-3.21.81-1.37,1.22-2.95,1.22-4.73s-.41-3.36-1.22-4.73c-.81-1.37-1.95-2.44-3.42-3.21ZM406.77,748.67c-.66,1.12-1.58,1.99-2.77,2.63-1.19.63-2.59.95-4.2.95h-5.38v-14.87h5.38c1.61,0,3.01.32,4.2.95,1.19.63,2.11,1.5,2.77,2.61s.99,2.4.99,3.87-.33,2.74-.99,3.86Z"/>
      <path class="st2" d="M429.97,747.4c1.11-.49,1.96-1.21,2.56-2.13.6-.93.9-2.03.9-3.32,0-1.96-.66-3.49-1.99-4.59-1.33-1.1-3.14-1.65-5.45-1.65h-6.81v18.2h1.92v-5.77h4.89c.51,0,.99-.04,1.46-.09l4.16,5.86h2.11l-4.45-6.25c.24-.08.48-.16.71-.26ZM425.94,746.5h-4.84v-9.13h4.84c1.82,0,3.2.4,4.15,1.2.94.8,1.42,1.92,1.42,3.38s-.47,2.56-1.42,3.35c-.94.8-2.33,1.2-4.15,1.2Z"/>
      <rect class="st2" x="443.17" y="735.71" width="1.92" height="18.2"/>
      <polygon class="st2" points="462 751.55 455.03 735.71 452.95 735.71 461.01 753.91 462.91 753.91 470.97 735.71 469.02 735.71 462 751.55"/>
      <polygon class="st2" points="480.72 745.49 490.13 745.49 490.13 743.85 480.72 743.85 480.72 737.38 491.27 737.38 491.27 735.71 478.79 735.71 478.79 753.91 491.66 753.91 491.66 752.25 480.72 752.25 480.72 745.49"/>
      <polygon class="st2" points="518.93 751.47 513.55 735.71 511.79 735.71 506.36 751.4 501.1 735.71 499.12 735.71 505.26 753.91 507.26 753.91 512.62 738.42 517.95 753.91 519.98 753.91 526.11 735.71 524.27 735.71 518.93 751.47"/>
      <path class="st2" d="M539.68,735.71l-8.32,18.2h2l2.18-4.86h10.16l2.18,4.86h2.03l-8.32-18.2h-1.9ZM536.24,747.49l4.38-9.79,4.38,9.79h-8.76Z"/>
      <polygon class="st2" points="568.49 735.71 562.25 745.92 556.01 735.71 553.96 735.71 561.24 747.62 561.24 753.91 563.14 753.91 563.14 747.62 570.42 735.71 568.49 735.71"/>
      <path class="st2" d="M589.41,746.79c-.41-.59-.95-1.06-1.61-1.42-.67-.36-1.4-.65-2.18-.87-.79-.22-1.58-.43-2.38-.62-.8-.19-1.53-.41-2.2-.65-.67-.24-1.21-.58-1.61-1.01-.41-.43-.61-1-.61-1.72,0-.62.17-1.18.51-1.68.34-.49.86-.89,1.57-1.18.71-.29,1.61-.44,2.7-.44.81,0,1.66.12,2.53.36.88.24,1.7.62,2.48,1.14l.65-1.53c-.73-.5-1.6-.9-2.6-1.18-1.01-.29-2.02-.43-3.04-.43-1.54,0-2.81.23-3.8.69-.99.46-1.72,1.07-2.2,1.82-.48.75-.71,1.58-.71,2.48,0,.97.2,1.75.61,2.35.41.6.94,1.08,1.61,1.44.67.36,1.4.66,2.2.87.8.22,1.59.42,2.39.61.8.19,1.52.41,2.18.66.66.25,1.19.59,1.6,1.03.41.43.61,1.01.61,1.72,0,.59-.17,1.13-.51,1.61-.34.49-.87.87-1.59,1.16s-1.65.43-2.79.43-2.34-.21-3.42-.64c-1.08-.42-1.95-.95-2.59-1.57l-.75,1.48c.68.69,1.63,1.26,2.87,1.7,1.24.44,2.53.66,3.89.66,1.56,0,2.84-.23,3.83-.69,1-.46,1.74-1.07,2.22-1.82.48-.75.73-1.57.73-2.46,0-.95-.2-1.72-.61-2.31Z"/>
    </g>
    <g>
      <path class="st2" d="M690.26,736.45c-1.11-.49-2.44-.74-3.98-.74h-6.81v18.2h1.92v-5.75h4.89c1.54,0,2.87-.25,3.98-.75s1.96-1.22,2.56-2.14c.6-.93.9-2.03.9-3.32s-.3-2.44-.9-3.37c-.6-.93-1.45-1.64-2.56-2.13ZM690.38,745.29c-.95.79-2.33,1.18-4.15,1.18h-4.84v-9.1h4.84c1.82,0,3.2.4,4.15,1.2.94.8,1.42,1.92,1.42,3.38s-.47,2.55-1.42,3.34Z"/>
      <path class="st2" d="M707.58,735.71l-8.32,18.2h2l2.18-4.86h10.16l2.18,4.86h2.03l-8.32-18.2h-1.9ZM704.13,747.49l4.38-9.79,4.38,9.79h-8.76Z"/>
      <polygon class="st2" points="722.24 737.38 728.64 737.38 728.64 753.91 730.56 753.91 730.56 737.38 736.96 737.38 736.96 735.71 722.24 735.71 722.24 737.38"/>
      <rect class="st2" x="745.22" y="735.71" width="1.92" height="18.2"/>
      <path class="st2" d="M773.06,738.18c-.86-.83-1.87-1.48-3.03-1.94s-2.43-.69-3.8-.69-2.66.23-3.82.69c-1.16.46-2.17,1.11-3.03,1.95-.86.84-1.53,1.82-2,2.94s-.71,2.34-.71,3.68.24,2.56.71,3.68,1.14,2.1,2,2.94c.86.84,1.87,1.49,3.04,1.95,1.17.46,2.44.69,3.81.69s2.63-.23,3.8-.69c1.16-.46,2.17-1.1,3.03-1.94s1.52-1.81,2-2.94c.48-1.13.71-2.36.71-3.69s-.24-2.57-.71-3.69c-.48-1.13-1.14-2.11-2-2.94ZM773.28,747.82c-.38.91-.91,1.71-1.6,2.39-.69.68-1.49,1.21-2.42,1.59-.93.37-1.94.56-3.03.56s-2.11-.19-3.04-.56c-.94-.37-1.75-.9-2.44-1.59s-1.23-1.49-1.61-2.41c-.38-.92-.57-1.92-.57-2.99s.19-2.09.57-3c.38-.91.92-1.71,1.61-2.39s1.51-1.21,2.44-1.59c.94-.37,1.95-.56,3.04-.56s2.1.19,3.03.56c.93.37,1.73.9,2.42,1.59.68.68,1.22,1.48,1.6,2.39.38.91.57,1.91.57,3s-.19,2.09-.57,3Z"/>
      <path class="st2" d="M796.48,746.79c-.41-.59-.95-1.06-1.61-1.42-.67-.36-1.4-.65-2.18-.87-.79-.22-1.58-.43-2.38-.62-.8-.19-1.53-.41-2.2-.65-.67-.24-1.21-.58-1.61-1.01-.41-.43-.61-1-.61-1.72,0-.62.17-1.18.51-1.68.34-.49.86-.89,1.57-1.18.71-.29,1.61-.44,2.7-.44.81,0,1.66.12,2.54.36.88.24,1.7.62,2.48,1.14l.65-1.53c-.73-.5-1.59-.9-2.6-1.18-1.01-.29-2.02-.43-3.04-.43-1.54,0-2.81.23-3.8.69s-1.72,1.07-2.2,1.82-.71,1.58-.71,2.48c0,.97.2,1.75.61,2.35.41.6.94,1.08,1.61,1.44.67.36,1.4.66,2.2.87.8.22,1.59.42,2.39.61.8.19,1.52.41,2.18.66.66.25,1.19.59,1.6,1.03.41.43.61,1.01.61,1.72,0,.59-.17,1.13-.51,1.61-.34.49-.87.87-1.59,1.16-.72.29-1.65.43-2.79.43s-2.34-.21-3.42-.64c-1.08-.42-1.95-.95-2.59-1.57l-.75,1.48c.68.69,1.63,1.26,2.87,1.7,1.24.44,2.53.66,3.89.66,1.56,0,2.84-.23,3.83-.69,1-.46,1.74-1.07,2.22-1.82.49-.75.73-1.57.73-2.46,0-.95-.2-1.72-.61-2.31Z"/>
    </g>
    <g>
      <path class="st2" d="M898.03,747.4c1.11-.49,1.96-1.21,2.56-2.13.6-.93.9-2.03.9-3.32,0-1.96-.66-3.49-1.99-4.59-1.33-1.1-3.14-1.65-5.45-1.65h-6.81v18.2h1.92v-5.77h4.89c.51,0,.99-.04,1.46-.09l4.16,5.86h2.11l-4.45-6.25c.24-.08.48-.16.71-.26ZM894,746.5h-4.84v-9.13h4.84c1.82,0,3.2.4,4.15,1.2s1.42,1.92,1.42,3.38-.47,2.56-1.42,3.35c-.94.8-2.33,1.2-4.15,1.2Z"/>
      <path class="st2" d="M926.02,738.18c-.86-.83-1.87-1.48-3.03-1.94-1.16-.46-2.43-.69-3.8-.69s-2.66.23-3.82.69-2.17,1.11-3.03,1.95-1.53,1.82-2,2.94c-.48,1.12-.71,2.34-.71,3.68s.24,2.56.71,3.68c.48,1.12,1.14,2.1,2,2.94.86.84,1.87,1.49,3.04,1.95,1.17.46,2.44.69,3.81.69s2.63-.23,3.8-.69c1.16-.46,2.17-1.1,3.03-1.94.86-.83,1.52-1.81,2-2.94.48-1.13.71-2.36.71-3.69s-.24-2.57-.71-3.69c-.48-1.13-1.14-2.11-2-2.94ZM926.24,747.82c-.38.91-.91,1.71-1.6,2.39-.68.68-1.49,1.21-2.42,1.59-.93.37-1.94.56-3.03.56s-2.11-.19-3.04-.56c-.94-.37-1.75-.9-2.44-1.59-.69-.68-1.23-1.49-1.61-2.41-.38-.92-.57-1.92-.57-2.99s.19-2.09.57-3c.38-.91.92-1.71,1.61-2.39.69-.68,1.51-1.21,2.44-1.59.94-.37,1.95-.56,3.04-.56s2.1.19,3.03.56c.93.37,1.73.9,2.42,1.59.69.68,1.22,1.48,1.6,2.39.38.91.57,1.91.57,3s-.19,2.09-.57,3Z"/>
      <path class="st2" d="M953.03,738.18c-.86-.83-1.87-1.48-3.03-1.94s-2.43-.69-3.8-.69-2.66.23-3.82.69c-1.16.46-2.17,1.11-3.03,1.95-.86.84-1.53,1.82-2,2.94-.48,1.12-.71,2.34-.71,3.68s.24,2.56.71,3.68c.48,1.12,1.14,2.1,2,2.94.86.84,1.87,1.49,3.04,1.95,1.17.46,2.44.69,3.81.69s2.63-.23,3.8-.69c1.16-.46,2.17-1.1,3.03-1.94s1.53-1.81,2-2.94c.48-1.13.71-2.36.71-3.69s-.24-2.57-.71-3.69-1.14-2.11-2-2.94ZM953.25,747.82c-.38.91-.91,1.71-1.6,2.39s-1.49,1.21-2.42,1.59c-.93.37-1.94.56-3.03.56s-2.11-.19-3.04-.56c-.94-.37-1.75-.9-2.44-1.59-.69-.68-1.23-1.49-1.61-2.41-.38-.92-.57-1.92-.57-2.99s.19-2.09.57-3c.38-.91.92-1.71,1.61-2.39.69-.68,1.51-1.21,2.44-1.59.94-.37,1.95-.56,3.04-.56s2.1.19,3.03.56c.93.37,1.73.9,2.42,1.59s1.22,1.48,1.6,2.39c.38.91.57,1.91.57,3s-.19,2.09-.57,3Z"/>
      <polygon class="st2" points="965.27 753.91 967.19 753.91 967.19 746.19 976.6 746.19 976.6 744.53 967.19 744.53 967.19 737.38 977.75 737.38 977.75 735.71 965.27 735.71 965.27 753.91"/>
      <path class="st2" d="M998.07,746.79c-.41-.59-.95-1.06-1.61-1.42-.67-.36-1.4-.65-2.18-.87-.79-.22-1.58-.43-2.38-.62-.8-.19-1.53-.41-2.2-.65-.67-.24-1.21-.58-1.61-1.01-.41-.43-.61-1-.61-1.72,0-.62.17-1.18.51-1.68s.86-.89,1.57-1.18c.71-.29,1.61-.44,2.7-.44.81,0,1.66.12,2.54.36.88.24,1.7.62,2.48,1.14l.65-1.53c-.73-.5-1.6-.9-2.6-1.18-1.01-.29-2.02-.43-3.04-.43-1.54,0-2.81.23-3.79.69-.99.46-1.72,1.07-2.2,1.82-.48.75-.71,1.58-.71,2.48,0,.97.2,1.75.61,2.35.41.6.94,1.08,1.61,1.44.67.36,1.4.66,2.2.87.8.22,1.59.42,2.39.61.8.19,1.52.41,2.18.66.66.25,1.19.59,1.6,1.03.41.43.61,1.01.61,1.72,0,.59-.17,1.13-.51,1.61-.34.49-.87.87-1.59,1.16s-1.65.43-2.79.43-2.34-.21-3.42-.64c-1.08-.42-1.95-.95-2.59-1.57l-.75,1.48c.68.69,1.63,1.26,2.87,1.7,1.24.44,2.53.66,3.89.66,1.56,0,2.84-.23,3.83-.69,1-.46,1.74-1.07,2.22-1.82.49-.75.73-1.57.73-2.46,0-.95-.2-1.72-.61-2.31Z"/>
    </g>
    <g>
      <polygon class="st2" points="1086.53 753.91 1088.46 753.91 1088.46 746.19 1097.87 746.19 1097.87 744.53 1088.46 744.53 1088.46 737.38 1099.01 737.38 1099.01 735.71 1086.53 735.71 1086.53 753.91"/>
      <polygon class="st2" points="1110.12 745.49 1119.53 745.49 1119.53 743.85 1110.12 743.85 1110.12 737.38 1120.67 737.38 1120.67 735.71 1108.19 735.71 1108.19 753.91 1121.06 753.91 1121.06 752.25 1110.12 752.25 1110.12 745.49"/>
      <polygon class="st2" points="1144.1 750.47 1132.37 735.71 1130.79 735.71 1130.79 753.91 1132.71 753.91 1132.71 739.15 1144.41 753.91 1146 753.91 1146 735.71 1144.1 735.71 1144.1 750.47"/>
      <path class="st2" d="M1159.62,739.42c.69-.68,1.51-1.21,2.44-1.59.94-.37,1.95-.56,3.04-.56s2.01.17,2.91.51,1.72.89,2.47,1.65l1.22-1.22c-.8-.88-1.78-1.55-2.94-1.99-1.16-.44-2.4-.66-3.72-.66s-2.63.23-3.8.69-2.17,1.11-3.03,1.94c-.86.83-1.53,1.81-2,2.94s-.71,2.36-.71,3.69.24,2.57.71,3.69c.48,1.13,1.14,2.11,1.99,2.94s1.85,1.48,3.02,1.94c1.16.46,2.43.69,3.8.69s2.58-.23,3.74-.68c1.16-.45,2.14-1.12,2.94-2l-1.22-1.22c-.75.76-1.57,1.32-2.47,1.66s-1.87.52-2.91.52c-1.09,0-2.11-.19-3.04-.56-.94-.37-1.75-.9-2.44-1.59-.69-.68-1.24-1.48-1.62-2.39-.39-.91-.58-1.91-.58-3s.19-2.09.58-3c.39-.91.93-1.71,1.62-2.39Z"/>
      <polygon class="st2" points="1182.68 745.49 1192.09 745.49 1192.09 743.85 1182.68 743.85 1182.68 737.38 1193.24 737.38 1193.24 735.71 1180.76 735.71 1180.76 753.91 1193.63 753.91 1193.63 752.25 1182.68 752.25 1182.68 745.49"/>
      <path class="st2" d="M1214.54,746.79c-.41-.59-.95-1.06-1.61-1.42-.67-.36-1.4-.65-2.18-.87-.79-.22-1.58-.43-2.38-.62-.8-.19-1.53-.41-2.2-.65-.67-.24-1.21-.58-1.61-1.01-.41-.43-.61-1-.61-1.72,0-.62.17-1.18.51-1.68.34-.49.86-.89,1.57-1.18.71-.29,1.61-.44,2.7-.44.81,0,1.66.12,2.54.36.88.24,1.7.62,2.48,1.14l.65-1.53c-.73-.5-1.59-.9-2.6-1.18-1.01-.29-2.02-.43-3.04-.43-1.54,0-2.81.23-3.8.69-.99.46-1.72,1.07-2.2,1.82-.48.75-.71,1.58-.71,2.48,0,.97.2,1.75.61,2.35.41.6.95,1.08,1.61,1.44.67.36,1.4.66,2.2.87.8.22,1.59.42,2.39.61s1.53.41,2.18.66c.66.25,1.19.59,1.6,1.03.41.43.61,1.01.61,1.72,0,.59-.17,1.13-.51,1.61-.34.49-.87.87-1.59,1.16-.72.29-1.65.43-2.79.43s-2.34-.21-3.42-.64-1.95-.95-2.59-1.57l-.75,1.48c.68.69,1.63,1.26,2.87,1.7,1.24.44,2.54.66,3.89.66,1.56,0,2.84-.23,3.83-.69,1-.46,1.74-1.07,2.22-1.82.48-.75.73-1.57.73-2.46,0-.95-.2-1.72-.61-2.31Z"/>
    </g>
    <rect class="st0" x="345.04" y="730.84" width="2" height="29.83"/>
    <rect class="st0" x="635.61" y="730.84" width="2" height="29.83"/>
    <rect class="st0" x="839.61" y="730.84" width="2" height="29.83"/>
    <rect class="st0" x="1041.55" y="730.84" width="2" height="29.83"/>
  </g>
  <g>
    <g>
      <path class="st1" d="M205.92,618.64v-45.5h31.2v4.16h-26.39v37.18h27.36v4.16h-32.17ZM210.21,597.58v-4.1h24.05v4.1h-24.05Z"/>
      <path class="st1" d="M298.48,618.64l18.65-25.22v3.71l-17.55-23.99h5.52l14.76,20.02-2.15.07,14.75-20.08h5.2l-17.35,23.66v-3.38l18.59,25.22h-5.59l-15.73-21.38h2.02l-15.6,21.38h-5.52Z"/>
      <path class="st1" d="M410.22,618.64v-41.34h-15.99v-4.16h36.79v4.16h-15.99v41.34h-4.81Z"/>
      <path class="st1" d="M494.59,618.64v-45.5h31.2v4.16h-26.39v37.18h27.36v4.16h-32.17ZM498.88,597.58v-4.1h24.05v4.1h-24.05Z"/>
      <path class="st1" d="M593.97,618.64v-45.5h17.03c5.76,0,10.3,1.38,13.62,4.13,3.31,2.75,4.97,6.58,4.97,11.47,0,3.21-.75,5.97-2.24,8.29-1.49,2.32-3.63,4.09-6.4,5.33-2.77,1.23-6.09,1.85-9.94,1.85h-14.37l2.15-2.21v16.64h-4.81ZM598.78,602.39l-2.15-2.28h14.23c4.55,0,8.01-1,10.37-2.99,2.36-1.99,3.54-4.79,3.54-8.39s-1.18-6.46-3.54-8.45c-2.36-1.99-5.82-2.99-10.37-2.99h-14.23l2.15-2.28v27.37ZM625.04,618.64l-11.7-16.51h5.2l11.76,16.51h-5.26Z"/>
      <path class="st1" d="M696.87,618.64v-45.5h4.81v45.5h-4.81Z"/>
      <path class="st1" d="M792.29,619.03c-3.42,0-6.6-.57-9.52-1.72s-5.46-2.77-7.6-4.88c-2.15-2.1-3.81-4.55-5-7.35-1.19-2.79-1.79-5.86-1.79-9.2s.6-6.4,1.79-9.2c1.19-2.79,2.86-5.24,5-7.35,2.14-2.1,4.67-3.73,7.57-4.88,2.9-1.15,6.09-1.72,9.55-1.72s6.59.57,9.49,1.72c2.9,1.15,5.43,2.76,7.57,4.84,2.15,2.08,3.81,4.53,5,7.34,1.19,2.82,1.79,5.89,1.79,9.23s-.6,6.41-1.79,9.23c-1.19,2.82-2.86,5.26-5,7.34-2.14,2.08-4.67,3.69-7.57,4.84-2.9,1.15-6.07,1.72-9.49,1.72ZM792.29,614.74c2.73,0,5.25-.46,7.57-1.4,2.32-.93,4.33-2.25,6.05-3.96s3.04-3.71,4-5.98c.95-2.28,1.43-4.78,1.43-7.51s-.48-5.23-1.43-7.51c-.95-2.27-2.29-4.27-4-5.98-1.71-1.71-3.73-3.03-6.05-3.96s-4.84-1.4-7.57-1.4-5.26.47-7.6,1.4-4.38,2.25-6.11,3.96c-1.73,1.71-3.08,3.71-4.03,5.98-.95,2.28-1.43,4.78-1.43,7.51s.48,5.18,1.43,7.47c.95,2.3,2.3,4.3,4.03,6.01,1.73,1.71,3.77,3.03,6.11,3.96,2.34.93,4.88,1.4,7.6,1.4Z"/>
      <path class="st1" d="M882.83,618.64v-45.5h17.03c5.76,0,10.3,1.38,13.62,4.13,3.31,2.75,4.97,6.58,4.97,11.47,0,3.21-.75,5.97-2.24,8.29-1.49,2.32-3.63,4.09-6.4,5.33-2.77,1.23-6.09,1.85-9.94,1.85h-14.37l2.14-2.21v16.64h-4.81ZM887.64,602.39l-2.14-2.28h14.23c4.55,0,8.01-1,10.37-2.99,2.36-1.99,3.54-4.79,3.54-8.39s-1.18-6.46-3.54-8.45c-2.36-1.99-5.82-2.99-10.37-2.99h-14.23l2.14-2.28v27.37ZM913.9,618.64l-11.7-16.51h5.2l11.76,16.51h-5.26Z"/>
      <path class="st1" d="M998.27,619.03c-3.38,0-6.62-.55-9.72-1.66-3.1-1.1-5.49-2.52-7.18-4.26l1.89-3.71c1.6,1.56,3.76,2.87,6.47,3.93,2.71,1.06,5.56,1.59,8.55,1.59s5.19-.36,6.99-1.07c1.8-.71,3.12-1.68,3.96-2.89.85-1.21,1.27-2.56,1.27-4.03,0-1.78-.51-3.21-1.53-4.29-1.02-1.08-2.35-1.94-4-2.57-1.65-.63-3.47-1.18-5.46-1.66-1.99-.48-3.99-.99-5.98-1.53s-3.83-1.27-5.49-2.18c-1.67-.91-3.01-2.11-4.03-3.61-1.02-1.5-1.53-3.46-1.53-5.88,0-2.25.59-4.32,1.79-6.21,1.19-1.89,3.02-3.4,5.49-4.55,2.47-1.15,5.63-1.72,9.49-1.72,2.56,0,5.09.36,7.61,1.07,2.51.71,4.68,1.7,6.5,2.96l-1.62,3.83c-1.95-1.3-4.02-2.25-6.21-2.86-2.19-.61-4.3-.91-6.34-.91-2.73,0-4.98.37-6.76,1.1-1.78.74-3.09,1.72-3.93,2.96-.85,1.24-1.27,2.63-1.27,4.19,0,1.78.51,3.21,1.53,4.29,1.02,1.08,2.36,1.93,4.03,2.54,1.67.61,3.5,1.15,5.49,1.62,1.99.48,3.97,1,5.95,1.56,1.97.56,3.79,1.29,5.46,2.18,1.67.89,3.01,2.07,4.03,3.54,1.02,1.47,1.53,3.4,1.53,5.78,0,2.21-.61,4.26-1.82,6.14-1.21,1.89-3.07,3.4-5.56,4.55-2.49,1.15-5.69,1.72-9.59,1.72Z"/>
    </g>
    <rect class="st2" x="3.74" y="596.3" width="134.44" height="2.95"/>
    <rect class="st2" x="1079.84" y="596.3" width="134.44" height="2.95"/>
  </g>
  <g>
    <path class="st2" d="M801.57,238.04c-8.49.67-16.89,1.23-25.25,2.06-3.79.57-8.53,1.1-12.2,1.64-2.82.52-6.11,1.14-8.95,1.61-32.41,6.21-61.4,19.82-89.73,36.28-16.99,10.03-34.4,21.25-51.06,32.34-11.19,7.38-22.91,14.38-35.19,19.78-44.77,20.35-98.91,24.98-144.23,4.22-3.97-1.93-7.87-3.96-11.49-6.55l.36-.99c25.46.3,48.75-2.81,72.59-8.86,22.44-5.74,44.06-14.42,64.29-25.42,13.57-7.18,34.6-19.88,47.56-28.2,44.25-27.77,89.42-48.04,143.01-42.73,17.77,1.78,34.87,6.34,50.49,13.79l-.2,1.03h0Z"/>
    <g>
      <path class="st2" d="M519.35,55.29h9.64c-1.6-.06-3.21-.1-4.82-.1s-3.22.04-4.82.1Z"/>
      <path class="st2" d="M519.12,1c-99.91,0-180.91,69-180.91,168.91,0,58.51,27.79,110.52,70.87,143.59,22.21-.05,43.3-2.8,66.03-8.57,11.47-2.93,22.84-6.71,34.03-11.27-59.02-7.39-104.68-57.75-104.68-118.77,0-64.5,51.01-117.07,114.89-119.61,1.6-.06,205.82,0,205.82,0L766.17,0s-247.05,1-247.05,1Z"/>
    </g>
    <path class="st0" d="M886.69,183.59c-45.09,6.41-50.29,11.61-56.7,56.7-6.41-45.09-11.61-50.29-56.7-56.7,45.09-6.41,50.29-11.61,56.7-56.7,6.41,45.09,11.61,50.29,56.7,56.7Z"/>
    <path class="st0" d="M931.82,133.26c-19.99,2.84-22.29,5.15-25.14,25.14-2.84-19.99-5.15-22.29-25.14-25.14,19.99-2.84,22.29-5.15,25.14-25.14,2.84,19.99,5.15,22.29,25.14,25.14Z"/>
    <path class="st2" d="M482.91,367.4c74.32,9.78,137.95-20.19,196.53-63.3,40.56-29.12,84.5-48.35,135.31-46.24,17.32.59,34.55,3.16,51.34,7.26,0,0-.11.99-.11.99-19.08.53-38.11,1.08-56.98,3.76-39.61,5.09-74.52,21.72-107.16,44.15-10.45,7.19-21.02,15.03-31.73,21.82-40.4,25.99-87.74,44.97-136.48,42.62-17.54-.79-34.81-4.17-50.97-10.09l.23-.97h0Z"/>
  </g>
</svg>
